<?xml version="1.0" encoding="utf-8"?>
<!-- Generator: Adobe Illustrator 19.2.1, SVG Export Plug-In . SVG Version: 6.00 Build 0)  -->
<svg version="1.1" id="Layer_1" xmlns="http://www.w3.org/2000/svg" xmlns:xlink="http://www.w3.org/1999/xlink" x="0px" y="0px"
	 viewBox="0 0 24 24" style="enable-background:new 0 0 24 24;" xml:space="preserve">
<style type="text/css">
	.st0{fill:#FFFFFF;}
</style>
<path class="st0" d="M23.966,12.971c0-0.002-0.001-0.003-0.001-0.004c-0.001-0.091-0.031-0.176-0.077-0.252
	c-0.015-0.025-0.038-0.041-0.057-0.063c-0.029-0.033-0.05-0.071-0.087-0.096c-0.017-0.011-0.037-0.011-0.055-0.02
	c-0.013-0.007-0.019-0.021-0.033-0.027L18,10.189v-7.07c0,0,0,0,0-0.001s0,0,0,0c0-0.002-0.001-0.003-0.001-0.005
	c-0.001-0.091-0.03-0.175-0.076-0.25c-0.015-0.025-0.038-0.041-0.057-0.063c-0.029-0.034-0.052-0.073-0.09-0.099
	c-0.015-0.01-0.034-0.009-0.049-0.017c-0.012-0.006-0.018-0.02-0.031-0.026L12.18,0.319c-0.125-0.053-0.267-0.053-0.392,0.001
	L6.324,2.659c-0.013,0.005-0.018,0.019-0.03,0.025C6.278,2.692,6.261,2.691,6.246,2.701C6.207,2.726,6.185,2.766,6.155,2.8
	C6.136,2.822,6.113,2.838,6.098,2.863c-0.046,0.075-0.074,0.159-0.076,0.25c0,0.002-0.002,0.003-0.002,0.005l0,0c0,0,0,0,0,0.001
	v7.069l-5.706,2.321c-0.014,0.006-0.02,0.02-0.033,0.027c-0.018,0.009-0.04,0.009-0.057,0.02c-0.037,0.025-0.058,0.063-0.087,0.096
	c-0.019,0.022-0.041,0.037-0.056,0.062c-0.047,0.076-0.076,0.161-0.077,0.252c0,0.002-0.001,0.003-0.001,0.004l0,0c0,0,0,0,0,0.001
	v7.835c0,0.203,0.123,0.386,0.31,0.462l6.017,2.476c0.062,0.025,0.126,0.038,0.19,0.038c0.07,0,0.141-0.015,0.207-0.045l5.259-2.382
	l5.309,2.383c0.065,0.029,0.136,0.044,0.205,0.044c0.064,0,0.13-0.013,0.191-0.038l5.966-2.476c0.187-0.077,0.309-0.26,0.309-0.462
	V12.971C23.966,12.972,23.966,12.972,23.966,12.971L23.966,12.971z M10.652,5.453l0.833,0.361V12.2l-4.361-1.953L7.021,10.2V3.88
	L10.652,5.453z M17,10.198l-1.514,0.672l-3.001,1.332V5.814L17,3.877V10.198z M17.508,14.903l-4.297-1.929l1.087-0.483l3.21-1.424
	l4.647,1.907L17.508,14.903z M11.986,1.323l4.24,1.798l-2.683,1.151L11.986,4.94L8.755,3.541l-0.969-0.42L11.986,1.323z
	 M6.511,11.067l4.256,1.907L6.51,14.903l-4.687-1.929L6.511,11.067z M1.003,13.719l5.017,2.064v6.754l-5.017-2.064
	C1.003,20.473,1.003,13.719,1.003,13.719z M7.021,15.77l4.464-2.022v6.737l-4.464,2.022C7.021,22.507,7.021,15.77,7.021,15.77z
	 M12.485,13.745l0.927,0.416L17,15.772v6.739l-4.515-2.026C12.485,20.485,12.485,13.745,12.485,13.745z M22.966,20.473L18,22.534
	v-6.752l4.966-2.062V20.473z"/>
</svg>
