<?xml version="1.0" encoding="utf-8"?>
<!-- Generator: Adobe Illustrator 19.2.1, SVG Export Plug-In . SVG Version: 6.00 Build 0)  -->
<svg version="1.1" id="Layer_1" xmlns="http://www.w3.org/2000/svg" xmlns:xlink="http://www.w3.org/1999/xlink" x="0px" y="0px"
	 viewBox="0 0 24 24" style="enable-background:new 0 0 24 24;" xml:space="preserve">
<style type="text/css">
	.st0{fill:#FFFFFF;}
</style>
<path class="st0" d="M10.5,18h0.1c0.276,0,0.5-0.224,0.5-0.5S10.876,17,10.6,17h-0.1c-0.276,0-0.5,0.224-0.5,0.5S10.224,18,10.5,18z
	 M10.5,16h0.1c0.276,0,0.5-0.224,0.5-0.5S10.876,15,10.6,15h-0.1c-0.276,0-0.5,0.224-0.5,0.5S10.224,16,10.5,16z M10.5,14h0.1
	c0.276,0,0.5-0.224,0.5-0.5S10.876,13,10.6,13h-0.1c-0.276,0-0.5,0.224-0.5,0.5S10.224,14,10.5,14z M10.5,12h0.1
	c0.276,0,0.5-0.224,0.5-0.5S10.876,11,10.6,11h-0.1c-0.276,0-0.5,0.224-0.5,0.5S10.224,12,10.5,12z M10.5,10h0.1
	c0.276,0,0.5-0.224,0.5-0.5S10.876,9,10.6,9h-0.1C10.224,9,10,9.223,10,9.5S10.224,10,10.5,10z M10.5,8h0.1
	c0.276,0,0.5-0.224,0.5-0.5S10.876,7,10.6,7h-0.1C10.224,7,10,7.223,10,7.5S10.224,8,10.5,8z M10.5,6h0.1c0.276,0,0.5-0.224,0.5-0.5
	S10.876,5,10.6,5h-0.1C10.224,5,10,5.223,10,5.5S10.224,6,10.5,6z M10.5,4h0.1c0.276,0,0.5-0.224,0.5-0.5S10.876,3,10.6,3h-0.1
	C10.224,3,10,3.223,10,3.5S10.224,4,10.5,4z M13.5,18c0.276,0,0.5-0.224,0.5-0.5S13.776,17,13.5,17h-0.1
	c-0.276,0-0.45,0.224-0.45,0.5S13.224,18,13.5,18z M13.5,16c0.276,0,0.5-0.224,0.5-0.5S13.776,15,13.5,15h-0.1
	c-0.276,0-0.45,0.224-0.45,0.5S13.224,16,13.5,16z M13.5,14c0.276,0,0.5-0.224,0.5-0.5S13.776,13,13.5,13h-0.1
	c-0.276,0-0.45,0.224-0.45,0.5S13.224,14,13.5,14z M13.5,12c0.276,0,0.5-0.224,0.5-0.5S13.776,11,13.5,11h-0.1
	c-0.276,0-0.45,0.224-0.45,0.5S13.224,12,13.5,12z M13.5,10c0.276,0,0.5-0.224,0.5-0.5S13.776,9,13.5,9h-0.1
	c-0.276,0-0.45,0.224-0.45,0.5S13.224,10,13.5,10z M13.5,8C13.776,8,14,7.776,14,7.5S13.776,7,13.5,7h-0.1
	c-0.276,0-0.45,0.224-0.45,0.5S13.224,8,13.5,8z M13.5,6C13.776,6,14,5.776,14,5.5S13.776,5,13.5,5h-0.1
	c-0.276,0-0.45,0.224-0.45,0.5S13.224,6,13.5,6z M13.5,4C13.776,4,14,3.776,14,3.5S13.776,3,13.5,3h-0.1
	c-0.276,0-0.45,0.224-0.45,0.5S13.224,4,13.5,4z M23.5,6H17V0.5C17,0.223,16.776,0,16.5,0h-9C7.224,0,7,0.223,7,0.5V4H0.5
	C0.224,4,0,4.223,0,4.5v19C0,23.776,0.224,24,0.5,24h7h3h3h3h7c0.276,0,0.5-0.224,0.5-0.5v-17C24,6.223,23.776,6,23.5,6z M1,5h6v18
	H1V5z M8,4.5V1h8v5.5V23h-2v-2.5c0-0.276-0.224-0.5-0.5-0.5h-3c-0.276,0-0.5,0.224-0.5,0.5V23H8V4.5z M11,23v-2h2v2H11z M23,23h-6V7
	h6V23z M5.1,7H3C2.724,7,2.5,7.223,2.5,7.5S2.724,8,3,8h2.1c0.276,0,0.5-0.224,0.5-0.5S5.376,7,5.1,7z M5.1,9H3
	C2.724,9,2.5,9.223,2.5,9.5S2.724,10,3,10h2.1c0.276,0,0.5-0.224,0.5-0.5S5.376,9,5.1,9z M5.1,11H3c-0.276,0-0.5,0.224-0.5,0.5
	S2.724,12,3,12h2.1c0.276,0,0.5-0.224,0.5-0.5S5.376,11,5.1,11z M5.1,13H3c-0.276,0-0.5,0.224-0.5,0.5S2.724,14,3,14h2.1
	c0.276,0,0.5-0.224,0.5-0.5S5.376,13,5.1,13z M5.1,15H3c-0.276,0-0.5,0.224-0.5,0.5S2.724,16,3,16h2.1c0.276,0,0.5-0.224,0.5-0.5
	S5.376,15,5.1,15z M5.1,17H3c-0.276,0-0.5,0.224-0.5,0.5S2.724,18,3,18h2.1c0.276,0,0.5-0.224,0.5-0.5S5.376,17,5.1,17z M5.1,19H3
	c-0.276,0-0.5,0.224-0.5,0.5S2.724,20,3,20h2.1c0.276,0,0.5-0.224,0.5-0.5S5.376,19,5.1,19z M19,10h2.1c0.276,0,0.5-0.224,0.5-0.5
	S21.376,9,21.1,9H19c-0.276,0-0.5,0.224-0.5,0.5S18.724,10,19,10z M19,12h2.1c0.276,0,0.5-0.224,0.5-0.5S21.376,11,21.1,11H19
	c-0.276,0-0.5,0.224-0.5,0.5S18.724,12,19,12z M19,14h2.1c0.276,0,0.5-0.224,0.5-0.5S21.376,13,21.1,13H19
	c-0.276,0-0.5,0.224-0.5,0.5S18.724,14,19,14z M19,16h2.1c0.276,0,0.5-0.224,0.5-0.5S21.376,15,21.1,15H19
	c-0.276,0-0.5,0.224-0.5,0.5S18.724,16,19,16z M19,18h2.1c0.276,0,0.5-0.224,0.5-0.5S21.376,17,21.1,17H19
	c-0.276,0-0.5,0.224-0.5,0.5S18.724,18,19,18z M19,20h2.1c0.276,0,0.5-0.224,0.5-0.5S21.376,19,21.1,19H19
	c-0.276,0-0.5,0.224-0.5,0.5S18.724,20,19,20z"/>
</svg>
